<svg height="512" viewBox="0 0 60 60" width="512" xmlns="http://www.w3.org/2000/svg"><g id="Page-1" fill="none" fill-rule="evenodd"><g id="002---Camper-Front-View" fill-rule="nonzero"><path id="Shape" d="m55 28.7v22.3h-50v-22.3c.00178169-.5584167.03852021-1.1161742.11-1.67 16.14 3.79 20.89 15.97 20.89 15.97h8s4.75-12.18 20.89-15.97c.0714798.5538258.1082183 1.1115833.11 1.67z" fill="#f44335"/><path id="Shape" d="m54.89 27.03c-1.0186667.2386667-1.9923333.5096667-2.921.813.02.285.031.57.031.857v22.3h3v-22.3c-.0017817-.5584167-.0385202-1.1161742-.11-1.67z" fill="#c81e1e"/><path id="Shape" d="m54.89 27.03c-16.14 3.79-20.89 15.97-20.89 15.97h-8s-4.75-12.18-20.89-15.97c.07135325-.5669035.18161344-1.1282281.33-1.68l.1-.35 1.45-5v-.03l2.01-6.97h42l2.01 6.97v.03l1.45 5 .1.35c.1483866.5517719.2586468 1.1130965.33 1.68z" fill="#f5f5f5"/><path id="Shape" d="m54.56 25.35-.1-.35-1.45-5v-.03l-2.01-6.97h-3l2.01 6.97v.03l1.45 5 .1.35c.1483866.5517719.2586468 1.1130965.33 1.68-16.14 3.79-20.89 15.97-20.89 15.97h3s4.75-12.18 20.89-15.97c-.0713532-.5669035-.1816134-1.1282281-.33-1.68z" fill="#cfd8dc"/><path id="Shape" d="m57 53c-.0081672 1.1011688-.8988312 1.9918328-2 2h-50c-1.10320187-.0032948-1.9967052-.8967981-2-2 .00816722-1.1011688.89883122-1.9918328 2-2h50c1.1032019.0032948 1.9967052.8967981 2 2z" fill="#7f8e94"/><path id="Shape" d="m55 51h-3c1.1032019.0032948 1.9967052.8967981 2 2-.0081672 1.1011688-.8988312 1.9918328-2 2h3c1.1011688-.0081672 1.9918328-.8988312 2-2-.0032948-1.1032019-.8967981-1.9967052-2-2z" fill="#545c60"/><rect id="Rectangle-path" fill="#7f8e94" height="4" rx="2" width="42" x="9" y="43"/><circle id="Oval" cx="30" cy="32" fill="#7f8e94" r="4"/><path id="Rectangle-path" d="m14 47h4v4h-4z" fill="#607d8b"/><circle id="Oval" cx="11.5" cy="36.5" fill="#ffdc00" r="2.5"/><path id="Shape" d="m28 13v10c0 .5522847-.4477153 1-1 1h-15c-.307341-.0002375-.597502-.1417889-.7868662-.3838627s-.2568957-.557779-.1831338-.8561373l2.44-9.76z" fill="#02a9f4"/><path id="Shape" d="m51 13h-42s2-5 21-5 21 5 21 5z" fill="#9e9e9e"/><path id="Shape" d="m30 8c-.514 0-1.01.005-1.5.012 17.6.257 19.5 4.988 19.5 4.988h3s-2-5-21-5z" fill="#707070"/><path id="Rectangle-path" d="m42 47h4v4h-4z" fill="#607d8b" transform="matrix(-1 0 0 -1 88 98)"/><circle id="Oval" cx="48.5" cy="36.5" fill="#ffdc00" r="2.5"/><path id="Shape" d="m46.53 13 2.44 9.76c.0737619.2983583.0062304.6140635-.1831338.8561373s-.4795252.3836252-.7868662.3838627h-15c-.5522847 0-1-.4477153-1-1v-10z" fill="#02a9f4"/><path id="Shape" d="m6.99 19.97v.01l-1.45 5.02h-2.54c-1.10320187-.0032948-1.9967052-.8967981-2-2v-3c.0032948-1.1032019.89679813-1.9967052 2-2h2c1.09106017.0004873 1.97849219.8790004 1.99 1.97z" fill="#f44335"/><path id="Shape" d="m59 20v3c-.0032948 1.1032019-.8967981 1.9967052-2 2h-2.54l-1.45-5v-.03c.0115078-1.0909996.8989398-1.9695127 1.99-1.97h2c1.1032019.0032948 1.9967052.8967981 2 2z" fill="#f44335"/><path id="Shape" d="m57 18h-2c-.1690633.0024764-.337107.0266747-.5.072.8799839.2272021 1.4961391 1.0191669 1.5 1.928v3c-.0019079.9319748-.6472788 1.7391031-1.556 1.946l.016.054h2.54c1.1032019-.0032948 1.9967052-.8967981 2-2v-3c-.0032948-1.1032019-.8967981-1.9967052-2-2z" fill="#c81e1e"/><path id="Shape" d="m8 55h8v2c0 1.1045695-.8954305 2-2 2h-4c-1.1045695 0-2-.8954305-2-2z" fill="#3f51b5"/><path id="Shape" d="m44 55h8v2c0 1.1045695-.8954305 2-2 2h-4c-1.1045695 0-2-.8954305-2-2z" fill="#3f51b5"/><path id="Shape" d="m49 55v2c0 1.1045695-.8954305 2-2 2h3c1.1045695 0 2-.8954305 2-2v-2z" fill="#283593"/><rect id="Rectangle-path" fill="#7f8e94" height="7" rx="2" width="20" x="20" y="1"/><path id="Shape" d="m38 1h-3c1.1045695 0 2 .8954305 2 2v3c0 1.1045695-.8954305 2-2 2h3c1.1045695 0 2-.8954305 2-2v-3c0-1.1045695-.8954305-2-2-2z" fill="#545c60"/><path id="Shape" d="m16 25c-.3759317-.0003235-.7199207-.2114573-.8904015-.5465111s-.1386466-.7374124.0824015-1.0414889l8-11c.3247434-.4467983.9502016-.5457434 1.397-.221.4467983.3247435.5457434.9502016.221 1.397l-8 11c-.1884027.2591698-.4895871.4123648-.81.412z" fill="#f5f5f5"/><path id="Shape" d="m36 25c-.3759317-.0003235-.7199207-.2114573-.8904015-.5465111s-.1386466-.7374124.0824015-1.0414889l8-11c.3247434-.4467983.9502016-.5457434 1.397-.221.4467983.3247435.5457434.9502016.221 1.397l-8 11c-.1884027.2591698-.4895871.4123648-.81.412z" fill="#f5f5f5"/><g fill="#000"><path id="Shape" d="m30 37c2.7614237 0 5-2.2385763 5-5s-2.2385763-5-5-5-5 2.2385763-5 5c.0033061 2.7600532 2.2399468 4.9966939 5 5zm0-8c1.6568542 0 3 1.3431458 3 3s-1.3431458 3-3 3-3-1.3431458-3-3 1.3431458-3 3-3z"/><path id="Shape" d="m11.5 40c1.4156179 0 2.6918449-.8527476 3.2335784-2.160608s.2422883-2.8132727-.7587047-3.8142657-2.5064053-1.3004382-3.8142657-.7587047c-1.30786038.5417335-2.160608 1.8179605-2.160608 3.2335784 0 1.9329966 1.56700338 3.5 3.5 3.5zm0-5c.8284271 0 1.5.6715729 1.5 1.5s-.6715729 1.5-1.5 1.5-1.5-.6715729-1.5-1.5.6715729-1.5 1.5-1.5z"/><path id="Shape" d="m48.5 40c1.4156179 0 2.6918449-.8527476 3.2335784-2.160608s.2422883-2.8132727-.7587047-3.8142657-2.5064053-1.3004382-3.8142657-.7587047-2.160608 1.8179605-2.160608 3.2335784c0 1.9329966 1.5670034 3.5 3.5 3.5zm0-5c.8284271 0 1.5.6715729 1.5 1.5s-.6715729 1.5-1.5 1.5-1.5-.6715729-1.5-1.5.6715729-1.5 1.5-1.5z"/><path id="Shape" d="m57 17h-2c-.5915149.0025196-1.1689452.1807259-1.659.512l-1.38-4.789c-.0127131-.0307476-.027067-.0607908-.043-.09h.011c-.179-.447-1.775-3.591-11.429-4.976.3272574-.49054796.5012957-1.06731109.5-1.657v-3c0-1.65685425-1.3431458-3-3-3h-16c-1.6568542 0-3 1.34314575-3 3v3c-.0003054.58798613.1736904 1.16286831.5 1.652-9.654 1.385-11.25 4.529-11.429 4.976h.011c-.01593296.0292092-.03028693.0592524-.043.09l-1.38 4.79c-.49032044-.3302444-1.06783618-.5070847-1.659-.508h-2c-1.65685425 0-3 1.3431458-3 3v3c0 1.6568542 1.34314575 3 3 3h1.264c-.17512908.8893417-.26354342 1.7935792-.264 2.7v21.48c-1.38276925.4806941-2.21490604 1.8910872-1.96700286 3.3338837.24790317 1.4427964 1.50308804 2.4945432 2.96700286 2.4861163h2v1c0 1.6568542 1.34314575 3 3 3h4c1.6568542 0 3-1.3431458 3-3v-1h26v1c0 1.6568542 1.3431458 3 3 3h4c1.6568542 0 3-1.3431458 3-3v-1h2c1.4594373.0027654 2.7080809-1.0474881 2.9553873-2.485822s-.5788398-2.8453257-1.9553873-3.330178v-21.484c-.0007167-.9064567-.0894666-1.8107013-.265-2.7h1.265c1.6568542 0 3-1.3431458 3-3v-3c0-1.6568542-1.3431458-3-3-3zm-24-3h12.749l2.251 9h-15zm-21.383-2c2.261-1.291 7.34-3 18.383-3s16.122 1.709 18.383 3zm15.383 2v9h-15l2.251-9zm-5-7c-.5522847 0-1-.44771525-1-1v-3c0-.55228475.4477153-1 1-1h2v1c0 .55228475.4477153 1 1 1s1-.44771525 1-1v-1h8v1c0 .55228475.4477153 1 1 1s1-.44771525 1-1v-1h2c.5522847 0 1 .44771525 1 1v3c0 .55228475-.4477153 1-1 1zm-12.248 7h2.437l-2.128 8.514c-.1496526.5973945-.0157368 1.2304225.3630233 1.7160323.37876.4856099.9601228.7696436 1.5759767.7699677h15c1.1045695 0 2-.8954305 2-2v-9h2v9c0 1.1045695.8954305 2 2 2h15c.6153551-.0002466 1.1963403-.2837501 1.575199-.7686502.3788587-.4849.5134093-1.1172087.364801-1.7143498l-2.129-8.517h2.437l3.352 11.612c.06.224.088.455.135.683-13.835 3.611-19.174 13.132-20.387 15.705h-6.7c-1.209-2.573-6.548-12.094-20.379-15.706.046-.22.073-.447.131-.663zm44.248 14.7v21.3h-7v-2h2c1.6568542 0 3-1.3431458 3-3s-1.3431458-3-3-3h-13.4c1.7-3.091 6.9-10.609 18.368-13.7.01.133.032.268.032.4zm-35 21.3v-2h22v2zm-13 0v-21.3c0-.137.022-.271.026-.407 11.431 3.09 16.65 10.613 18.364 13.707h-13.39c-1.65685425 0-3 1.3431458-3 3s1.34314575 3 3 3h2v2zm43-6c.5522847 0 1 .4477153 1 1s-.4477153 1-1 1h-38c-.5522847 0-1-.4477153-1-1s.4477153-1 1-1zm-34 4h2v2h-2zm28 0h2v2h-2zm-41-25v-3c0-.5522847.44771525-1 1-1h2c.47842795-.0016121.88941112.3394702.976.81h.022l-1.209 4.19h-1.789c-.55228475 0-1-.4477153-1-1zm13 34c0 .5522847-.4477153 1-1 1h-4c-.55228475 0-1-.4477153-1-1v-1h6zm36 0c0 .5522847-.4477153 1-1 1h-4c-.5522847 0-1-.4477153-1-1v-1h6zm4-3h-50c-.55228475 0-1-.4477153-1-1s.44771525-1 1-1h50c.5522847 0 1 .4477153 1 1s-.4477153 1-1 1zm3-31c0 .5522847-.4477153 1-1 1h-1.789l-1.211-4.194h.022c.0884259-.469684.5000737-.8089356.978-.806h2c.5522847 0 1 .4477153 1 1z"/></g></g></g></svg>