<svg height="512" viewBox="0 0 60 60" width="512" xmlns="http://www.w3.org/2000/svg"><g id="Page-1" fill="none" fill-rule="evenodd"><g id="011---Camper-Side-View" fill-rule="nonzero" transform="translate(0 -1)"><g fill="#607d8b"><path id="Shape" d="m43 44.5c-.0002751.1671245.0097438.3341073.03.5h-26.06c.0202562-.1658927.0302751-.3328755.03-.5.0052705-1.3623201-.6137748-2.6519978-1.68-3.5h29.36c-1.0662252.8480022-1.6852705 2.1376799-1.68 3.5z"/><path id="Shape" d="m8 44.5c-.00027513.1671245.00974384.3341073.03.5h-5.03c-1.10320187-.0032948-1.9967052-.8967981-2-2-.00282307-.5305905.2101411-1.0395388.59-1.41.3704612-.3798589.87940947-.5928231 1.41-.59l6.68-.0000277c-1.06622522.8480299-1.68527053 2.1377076-1.68 3.5000277z"/><path id="Shape" d="m59 43c-.0081672 1.1011688-.8988312 1.9918328-2 2h-5.03c.0202562-.1658927.0302751-.3328755.03-.5.0052705-1.3623201-.6137748-2.6519978-1.68-3.5h6.68c1.1032019.0032948 1.9967052.8967981 2 2z"/></g><path id="Shape" d="m17 44.5c.0002751.1671245-.0097438.3341073-.03.5-.2633618 2.2693607-2.1854087 3.9812515-4.47 3.9812515s-4.20663815-1.7118908-4.47-3.9812515c-.02025616-.1658927-.03027513-.3328755-.03-.5 0-2.4852814 2.0147186-4.5 4.5-4.5s4.5 2.0147186 4.5 4.5z" fill="#3f51b5"/><path id="Shape" d="m15.32 41c-1.2125037-.9828135-2.8490469-1.263905-4.32-.742.4795733.1691933.9261857.4202436 1.32.742 1.0662252.8480022 1.6852705 2.1376799 1.68 3.5.0002751.1671245-.0097438.3341073-.03.5-.1932726 1.7102592-1.3467822 3.1597197-2.97 3.732 1.2922928.4689414 2.7284887.3171552 3.8942052-.411564 1.1657165-.7287193 1.9312766-1.9533072 2.0757948-3.320436.0202562-.1658927.0302751-.3328755.03-.5.0052705-1.3623201-.6137748-2.6519978-1.68-3.5z" fill="#283593"/><path id="Shape" d="m52 44.5c.0002751.1671245-.0097438.3341073-.03.5-.2633618 2.2693607-2.1854087 3.9812515-4.47 3.9812515s-4.2066382-1.7118908-4.47-3.9812515c-.0202562-.1658927-.0302751-.3328755-.03-.5 0-2.4852814 2.0147186-4.5 4.5-4.5s4.5 2.0147186 4.5 4.5z" fill="#3f51b5"/><path id="Shape" d="m50.32 41c-1.2125037-.9828135-2.8490469-1.263905-4.32-.742.4795733.1691933.9261857.4202436 1.32.742 1.0662252.8480022 1.6852705 2.1376799 1.68 3.5.0002751.1671245-.0097438.3341073-.03.5-.1932726 1.7102592-1.3467822 3.1597197-2.97 3.732 1.2922928.4689414 2.7284887.3171552 3.8942052-.411564 1.1657165-.7287193 1.9312766-1.9533072 2.0757948-3.320436.0202562-.1658927.0302751-.3328755.03-.5.0052705-1.3623201-.6137748-2.6519978-1.68-3.5z" fill="#283593"/><path id="Shape" d="m57 22.2v5.8h-46c-5.91 0-7.94 4.21-8 6.87.00021853-5.132817 1.52085072-10.1505552 4.37-14.42l.97-1.46c.23-.34.47-.67.73-.99h46.79c.7461294 1.273966 1.1396069 2.7236198 1.14 4.2z" fill="#02a9f4"/><path id="Shape" d="m55.86 18h-3c.7461294 1.273966 1.1396069 2.7236198 1.14 4.2v5.8h3v-5.8c-.0003931-1.4763802-.3938706-2.926034-1.14-4.2z" fill="#0377bc"/><path id="Shape" d="m55.86 18h-46.79c.82091533-1.0324389 1.820003-1.909604 2.95-2.59 1.5020172-.9115402 3.2230605-1.3988236 4.98-1.41h32c.25 0 .5.01.73.03 2.5753836.2245238 4.8717435 1.7117259 6.13 3.97z" fill="#f44335"/><path id="Shape" d="m49.73 14.03c-.23-.02-.48-.03-.73-.03h-3c.25 0 .5.01.73.03 2.5753836.2245238 4.8717435 1.7117259 6.13 3.97h3c-1.2582565-2.2582741-3.5546164-3.7454762-6.13-3.97z" fill="#c81e1e"/><path id="Shape" d="m57 28v13h-6.68c-1.6435662-1.3334101-3.9964338-1.3334101-5.64 0h-29.36c-1.6435662-1.3334101-3.9964338-1.3334101-5.64 0h-6.68v-6.13c.06-2.66 2.09-6.87 8-6.87z" fill="#f44335"/><path id="Rectangle-path" d="m54 28h3v13h-3z" fill="#c81e1e"/><path id="Rectangle-path" d="m20 18h4v10h-4z" fill="#f44335"/><path id="Rectangle-path" d="m40 18h4v10h-4z" fill="#f44335"/><path id="Rectangle-path" d="m26.173 22.021h11.66v2h-11.66z" fill="#f5f5f5" transform="matrix(.515 -.857 .857 .515 -4.213 38.594)"/><path id="Rectangle-path" d="m7.269 22.015h11.611v2h-11.611z" fill="#f5f5f5" transform="matrix(.504 -.864 .864 .504 -13.393 22.712)"/><path id="Rectangle-path" d="m45.179 22.029h11.66v2h-11.66z" fill="#f5f5f5" transform="matrix(.515 -.857 .857 .515 4.996 54.889)"/><path id="Shape" d="m36 8v6h-18v-4c.0032948-1.10320187.8967981-1.9967052 2-2z" fill="#ff9801"/><path id="Shape" d="m29 2h14c1.1045695 0 2 .8954305 2 2v4h-18v-4c0-1.1045695.8954305-2 2-2z" fill="#ffdc00"/><path id="Shape" d="m43 2h-3c1.1045695 0 2 .8954305 2 2v4h3v-4c0-1.1045695-.8954305-2-2-2z" fill="#fec108"/><circle id="Oval" cx="20" cy="5" fill="#ff5722" r="3"/><path id="Shape" d="m49 9v5h-7v-6h6c.5522847 0 1 .44771525 1 1z" fill="#ff9801"/><path id="Shape" d="m48 8h-3c.5522847 0 1 .44771525 1 1v5h3v-5c0-.55228475-.4477153-1-1-1z" fill="#f57c00"/><path id="Rectangle-path" d="m36 8h6v6h-6z" fill="#ff5722"/><path id="Rectangle-path" d="m39 8h3v6h-3z" fill="#d84315"/><rect id="Rectangle-path" fill="#7f8e94" height="11" rx="2" width="58" x="1" y="49"/><path id="Shape" d="m57 49h-3c1.1045695 0 2 .8954305 2 2v7c0 1.1045695-.8954305 2-2 2h3c1.1045695 0 2-.8954305 2-2v-7c0-1.1045695-.8954305-2-2-2z" fill="#545c60"/><path id="Shape" d="m18 54h-12c-.55228475 0-1-.4477153-1-1s.44771525-1 1-1h12c.5522847 0 1 .4477153 1 1s-.4477153 1-1 1z" fill="#f5f5f5"/><path id="Shape" d="m54 54h-12c-.5522847 0-1-.4477153-1-1s.4477153-1 1-1h12c.5522847 0 1 .4477153 1 1s-.4477153 1-1 1z" fill="#f5f5f5"/><path id="Shape" d="m36 54h-12c-.5522847 0-1-.4477153-1-1s.4477153-1 1-1h12c.5522847 0 1 .4477153 1 1s-.4477153 1-1 1z" fill="#f5f5f5"/><path id="Shape" d="m57 46c1.6534434-.0082058 2.9917942-1.3465566 3-3-.0052514-1.2667854-.8056491-2.3937454-2-2.816v-17.984c.0519209-4.6410375-3.3932727-8.5793245-8-9.145v-4.055c0-1.1045695-.8954305-2-2-2h-2v-3c0-1.65685425-1.3431458-3-3-3h-14c-1.6568542 0-3 1.34314575-3 3v3h-2.556c.3599241-.60534654.5518554-1.29574677.556-2 .0066679-1.88575504-1.3046371-3.52003454-3.1470329-3.92214702-1.8423957-.40211249-3.7153954.53717587-4.4950574 2.25422092-.779662 1.71704506-.2541911 3.74541161 1.2610903 4.8679261-.3980888.5159131-.6155817 1.1483641-.619 1.8v3c-1.9353524.0079438-3.8319575.5431142-5.486 1.548-1.6091243.9760884-2.9765866 2.3035524-4 3.883l-.979 1.469c-2.96111208 4.4313848-4.53950216 9.6423344-4.535 14.972v5.309c-.41780574.1425216-.79701048.3796957-1.108.693-.57399851.5579289-.89606134 1.3255361-.892 2.126 0 1.6568542 1.34314575 3 3 3h4.213c.20725627.7319707.56410839 1.4129862 1.048 2h-5.261c-1.65685425 0-3 1.3431458-3 3v7c0 1.6568542 1.34314575 3 3 3h54c1.6568542 0 3-1.3431458 3-3v-7c0-1.6568542-1.3431458-3-3-3h-5.261c.4838916-.5870138.8407437-1.2680293 1.048-2zm.694-2.288c-.1823963.1865985-.4330776.2906276-.694.288h-4.025c-.0637855-.6978515-.2613845-1.376886-.582-2h4.607c.5522847 0 1 .4477153 1 1 .0008733.2694422-.1099083.5272084-.306.712zm-1.6939999-16.712h-11.0000001v-8h10.273c.4787676.9988155.7272088 2.0923671.727 3.2zm-33.0000001-8v8h-2v-8zm2 0h14v8h-14zm16 0h2v8h-2zm7-6h-5v-4h5zm-11-4h4v4h-4zm-9-5c0-.55228475.4477153-1 1-1h1v1c0 .55228475.4477153 1 1 1s1-.44771525 1-1v-1h8v1c0 .55228475.4477153 1 1 1s1-.44771525 1-1v-1h1c.5522847 0 1 .44771525 1 1v3h-16zm-8-1c1.1045695 0 2 .8954305 2 2s-.8954305 2-2 2-2-.8954305-2-2 .8954305-2 2-2zm-1 7c0-.55228475.4477153-1 1-1h1v1c0 .5522847.4477153 1 1 1s1-.4477153 1-1v-1h8v1c0 .5522847.4477153 1 1 1s1-.4477153 1-1v-1h2v4h-16zm-6.466 6.269c1.3456812-.8209971 2.8896726-1.2597174 4.466-1.269h32c.2226667 0 .4413333.0086667.656.026 1.5907342.1356143 3.0804829.8357962 4.2 1.974h-42.37c.3320622-.2675371.6822311-.5117866 1.048-.731zm-4.334 4.736.976-1.465c.127-.19.266-.361.4-.54h9.424v8h-8c-2.30712493-.098378-4.56726192.6720097-6.334 2.159.6801554-2.9077144 1.87716869-5.6695837 3.534-8.154zm2.8 7.995h45v11h-5.348c-1.8889987-1.3313193-4.4110013-1.3313193-6.3 0h-28.7c-1.8889987-1.3313193-4.4110013-1.3313193-6.3 0h-5.352v-5c0-2.412 1.864-6 7-6zm6.787 17h24.426c.2072563.7319707.5641084 1.4129862 1.048 2h-26.522c.4838916-.5870138.8407437-1.2680293 1.048-2zm24.238-2h-24.05c-.0637855-.6978515-.2613845-1.376886-.582-2h25.214c-.3206155.623114-.5182145 1.3021485-.582 2zm-40.025-1c-.00087326-.2694422.10990828-.5272084.306-.712.18239634-.1865985.43307757-.2906276.694-.288h4.607c-.32061546.623114-.5182145 1.3021485-.582 2h-4.025c-.55228475 0-1-.4477153-1-1zm7 1.5c0-1.9329966 1.5670034-3.5 3.5-3.5s3.5 1.5670034 3.5 3.5-1.5670034 3.5-3.5 3.5-3.5-1.5670034-3.5-3.5zm49 6.5v7c0 .5522847-.4477153 1-1 1h-54c-.55228475 0-1-.4477153-1-1v-7c0-.5522847.44771525-1 1-1h54c.5522847 0 1 .4477153 1 1zm-14-6.5c0-1.9329966 1.5670034-3.5 3.5-3.5s3.5 1.5670034 3.5 3.5-1.5670034 3.5-3.5 3.5-3.5-1.5670034-3.5-3.5z" fill="#000"/><path id="Shape" d="m22 38c.5522847 0 1-.4477153 1-1v-5c0-.5522847-.4477153-1-1-1s-1 .4477153-1 1v5c0 .5522847.4477153 1 1 1z" fill="#000"/><path id="Shape" d="m16 34h2c.5522847 0 1-.4477153 1-1s-.4477153-1-1-1h-2c-.5522847 0-1 .4477153-1 1s.4477153 1 1 1z" fill="#000"/></g></g></svg>