<svg xmlns="http://www.w3.org/2000/svg" width="40" height="24" viewBox="0 0 40 24">
    <g fill="none" fill-rule="evenodd">
        <rect width="39" height="23" x=".5" y=".5" stroke="#757575" rx="4"/>
        <g fill="#CCC">
            <path d="M15.337 16.784l1.508-9.352h2.41l-1.508 9.352h-2.41M26.488 7.661a5.958 5.958 0 0 0-2.159-.392c-2.383 0-4.06 1.27-4.074 3.086-.015 1.345 1.197 2.094 2.11 2.541.94.458 1.255.751 1.252 1.16-.007.627-.75.914-1.443.914-.965 0-1.477-.141-2.27-.49l-.31-.15-.337 2.094c.562.26 1.604.487 2.685.499 2.532 0 4.178-1.254 4.197-3.195.009-1.066-.634-1.874-2.024-2.54-.843-.434-1.36-.722-1.353-1.16 0-.39.436-.806 1.38-.806a4.227 4.227 0 0 1 1.804.36l.216.107.326-2.028M29.697 13.468c.2-.537.96-2.614.96-2.614-.014.025.199-.541.32-.892l.163.807s.463 2.232.558 2.7h-2zm2.973-6.027h-1.862c-.578 0-1.01.166-1.263.776l-3.579 8.57h2.531s.413-1.152.507-1.406l3.086.005c.073.327.294 1.402.294 1.402h2.237L32.67 7.44zM13.315 7.44l-2.358 6.376-.253-1.296c-.44-1.494-1.808-3.112-3.338-3.923l2.158 8.18 2.55-.002 3.795-9.335h-2.554"/>
            <path d="M8.767 7.433H4.881l-.032.194c3.024.775 5.024 2.645 5.855 4.893l-.845-4.298c-.145-.592-.569-.768-1.092-.789"/>
        </g>
    </g>
</svg>
