<svg xmlns="http://www.w3.org/2000/svg" width="40" height="24" viewBox="0 0 40 24">
    <g fill="none" fill-rule="evenodd">
        <rect width="39" height="23" x=".5" y=".5" stroke="#757575" rx="4"/>
        <path fill="#757575" d="M14.016 21.082a8.724 8.724 0 1 1 0-17.448 8.724 8.724 0 0 1 8.724 8.724 8.724 8.724 0 0 1-8.724 8.724z"/>
        <path fill="#CCC" d="M25.729 3.634a8.694 8.694 0 0 0-6.738 3.182h1.763c.24.293.462.6.665.924h-3.093a8.765 8.765 0 0 0-.503.924h4.098c.14.299.264.607.37.923h-4.837c-.101.301-.186.61-.254.924h5.344a8.788 8.788 0 0 1-.253 4.619h-4.837c.106.316.229.624.369.924h4.098a8.74 8.74 0 0 1-.503.924h-3.092c.201.322.424.63.665.923h1.762c-.27.329-.565.638-.881.924a8.692 8.692 0 0 0 5.857 2.257 8.725 8.725 0 0 0 0-17.449"/>
        <path fill="#FFF" d="M11.978 13.313a1.63 1.63 0 0 0-.211-.015c-.537 0-.809.185-.809.549 0 .224.133.366.34.366.386 0 .664-.367.68-.9zm.69 1.604h-.786l.018-.373c-.239.295-.558.435-.992.435-.514 0-.866-.4-.866-.983 0-.876.612-1.387 1.663-1.387.108 0 .245.01.386.027a.889.889 0 0 0 .037-.233c0-.238-.165-.328-.607-.328a3.158 3.158 0 0 0-1.003.163l.132-.81c.472-.138.783-.19 1.133-.19.814 0 1.245.365 1.244 1.055.001.185-.03.413-.077.713-.082.521-.259 1.639-.283 1.911zM9.646 14.917H8.7l.543-3.402-1.212 3.402h-.645l-.08-3.383-.57 3.383h-.887l.74-4.425h1.363l.082 2.477.83-2.477h1.516l-.733 4.425M26.899 13.313a1.622 1.622 0 0 0-.21-.015c-.538 0-.81.185-.81.549 0 .224.133.366.34.366.386 0 .664-.367.68-.9zm.69 1.604h-.785l.017-.373c-.239.295-.558.435-.992.435-.514 0-.865-.4-.865-.983 0-.876.612-1.387 1.662-1.387.108 0 .245.01.386.027a.883.883 0 0 0 .037-.233c0-.238-.165-.328-.607-.328a3.165 3.165 0 0 0-1.003.163l.132-.81c.472-.138.783-.19 1.133-.19.814 0 1.244.365 1.243 1.055a4.58 4.58 0 0 1-.076.713c-.082.521-.259 1.639-.283 1.911zM16.877 14.862c-.26.082-.462.117-.681.117-.484 0-.748-.278-.748-.79-.007-.16.07-.578.13-.96.054-.336.41-2.456.41-2.456h.941l-.11.545h.57l-.129.865h-.57c-.11.684-.266 1.537-.268 1.65 0 .186.1.267.325.267a.77.77 0 0 0 .255-.034l-.125.796M19.763 14.833a3.202 3.202 0 0 1-.966.146c-1.054-.001-1.603-.551-1.603-1.605 0-1.23.699-2.136 1.648-2.136.776 0 1.272.507 1.272 1.302 0 .264-.034.522-.117.885h-1.875c-.063.522.271.74.82.74.336 0 .64-.07.978-.227l-.157.895zm-.53-2.133c.006-.075.1-.643-.438-.643-.299 0-.514.229-.6.643h1.039zM13.235 12.456c0 .455.22.769.721 1.005.384.18.444.233.444.397 0 .224-.17.326-.544.326-.283 0-.546-.045-.85-.143 0 0-.123.794-.13.832.216.046.408.09.986.106 1 0 1.461-.38 1.461-1.203 0-.494-.193-.784-.667-1.003-.397-.182-.443-.223-.443-.39 0-.195.157-.295.463-.295.186 0 .44.02.681.054l.135-.834a6.395 6.395 0 0 0-.834-.07c-1.06 0-1.426.553-1.423 1.218M24.37 11.333c.263 0 .508.068.846.239l.155-.96c-.14-.055-.627-.375-1.041-.375-.634 0-1.17.314-1.547.833-.55-.182-.776.186-1.053.553l-.246.057c.019-.12.036-.24.03-.362h-.87c-.118 1.114-.329 2.242-.494 3.357l-.043.242h.948a61.46 61.46 0 0 0 .297-2.131l.357-.198c.054-.199.22-.265.555-.257a4.032 4.032 0 0 0-.068.738c0 1.177.637 1.91 1.656 1.91.262 0 .488-.034.837-.13l.166-1.008c-.314.154-.571.227-.804.227-.55 0-.884-.407-.884-1.078 0-.975.495-1.657 1.203-1.657M32.388 10.492l-.21 1.278c-.259-.34-.537-.587-.904-.587-.478 0-.913.362-1.198.896-.396-.083-.806-.223-.806-.223v.004c.03-.298.044-.48.041-.542h-.87c-.118 1.114-.329 2.242-.494 3.357l-.043.242h.948c.128-.83.225-1.521.298-2.068.324-.293.486-.547.812-.53-.145.35-.23.753-.23 1.167 0 .9.456 1.493 1.144 1.493.348 0 .614-.12.874-.397l-.045.335h.896l.722-4.425h-.935zm-1.184 3.594c-.322 0-.486-.24-.486-.71 0-.707.306-1.209.735-1.209.326 0 .502.248.502.705 0 .714-.31 1.214-.751 1.214z"/>
        <path fill="#FFF" d="M9.919 14.654H8.97l.543-3.401-1.211 3.401h-.646l-.08-3.382-.57 3.382h-.886l.74-4.425h1.362l.038 2.74.92-2.74h1.47l-.732 4.425M12.25 13.051a1.575 1.575 0 0 0-.21-.014c-.537 0-.809.183-.809.547 0 .224.133.367.34.367.385 0 .664-.367.68-.9zm.69 1.603h-.785l.018-.372c-.24.294-.559.435-.993.435-.513 0-.865-.401-.865-.984 0-.876.612-1.387 1.663-1.387.107 0 .245.01.386.028.03-.119.037-.17.037-.234 0-.238-.165-.326-.607-.326a3.146 3.146 0 0 0-1.003.16l.131-.808c.472-.139.784-.191 1.134-.191.813 0 1.244.366 1.243 1.055.002.185-.029.414-.076.714-.083.52-.26 1.639-.283 1.91zM25.643 10.349l-.155.96c-.338-.17-.583-.239-.846-.239-.707 0-1.203.683-1.203 1.658 0 .672.334 1.078.884 1.078.233 0 .491-.073.805-.227l-.167 1.008c-.349.095-.574.13-.837.13-1.02 0-1.655-.733-1.655-1.91 0-1.583.878-2.688 2.134-2.688.413 0 .902.175 1.04.23M27.171 13.051a1.563 1.563 0 0 0-.21-.014c-.537 0-.809.183-.809.547 0 .224.133.367.34.367.385 0 .664-.367.68-.9zm.69 1.603h-.785l.018-.372c-.24.294-.559.435-.992.435-.514 0-.866-.401-.866-.984 0-.876.612-1.387 1.663-1.387.107 0 .245.01.386.028.029-.119.037-.17.037-.234 0-.238-.165-.326-.608-.326a3.148 3.148 0 0 0-1.002.16l.131-.808c.472-.139.783-.191 1.134-.191.813 0 1.244.366 1.243 1.055.002.185-.029.414-.076.714-.083.52-.259 1.639-.283 1.91zM17.149 14.6c-.26.081-.461.117-.68.117-.484 0-.749-.279-.749-.79-.007-.16.07-.578.13-.96.055-.337.41-2.456.41-2.456h.942l-.11.545h.484l-.13.864h-.484c-.11.685-.265 1.537-.267 1.65 0 .187.1.267.324.267.108 0 .192-.01.256-.034l-.126.797M20.036 14.571c-.324.1-.636.146-.966.146-1.054 0-1.604-.552-1.604-1.606 0-1.23.7-2.136 1.648-2.136.776 0 1.272.507 1.272 1.303a3.9 3.9 0 0 1-.116.885h-1.875c-.063.522.271.74.818.74.337 0 .641-.07.98-.227l-.157.895zm-.53-2.134c.006-.075.1-.642-.437-.642-.3 0-.515.229-.602.642h1.04zM13.508 12.193c0 .456.22.77.721 1.005.384.18.443.234.443.398 0 .224-.17.325-.544.325-.282 0-.545-.044-.849-.141l-.13.83c.216.047.408.09.986.107 1 0 1.461-.38 1.461-1.203 0-.495-.193-.785-.668-1.003-.397-.182-.442-.223-.442-.39 0-.195.157-.296.463-.296.186 0 .44.021.68.055l.135-.835a6.447 6.447 0 0 0-.833-.07c-1.06 0-1.426.553-1.423 1.218M32.874 14.654h-.896l.044-.335c-.26.278-.526.398-.873.398-.688 0-1.144-.593-1.144-1.494 0-1.197.706-2.206 1.541-2.206.368 0 .646.15.905.491l.21-1.279h.934l-.721 4.425zm-1.398-.831c.442 0 .751-.5.751-1.213 0-.457-.176-.706-.501-.706-.43 0-.735.502-.735 1.21 0 .47.163.709.485.709zM28.714 11.056c-.119 1.114-.33 2.242-.494 3.356l-.043.242h.947c.34-2.2.42-2.63.952-2.576.085-.45.242-.845.36-1.044-.397-.083-.619.142-.909.568.023-.185.065-.364.057-.546h-.87M20.917 11.056c-.119 1.114-.33 2.242-.494 3.356l-.043.242h.947c.34-2.2.42-2.63.952-2.576.085-.45.242-.845.36-1.044-.397-.083-.619.142-.909.568.023-.185.065-.364.057-.546h-.87"/>
    </g>
</svg>
